<svg id="Ion-logo" xmlns="http://www.w3.org/2000/svg" width="880" height="280" viewBox="0 0 880 280">
  <rect id="사각형_13489" data-name="사각형 13489" width="880" height="280" fill="#981c1c" opacity="0"/>
  <g id="组_57" data-name="组 57" transform="translate(74.794 -96.001)">
    <path id="路径_127" data-name="路径 127" d="M370.554,174.678h-6.764c-6.467,0-10.525,2.663-12.053,7.92L335.8,237.9a2.3,2.3,0,0,1-1.846,1.629,2.071,2.071,0,0,1-2.143-1.013L300.4,183.007c-3.066-5.544-4.61-8.329-12.551-8.329H272.585c-8.429,0-13.453,3.793-15.808,11.941l-21,70.729c-.668,2.292-.562,4.053.308,5.231,1.072,1.454,3.406,2.2,6.933,2.2h6.79c6.36,0,10.36-2.668,11.888-7.92l16.45-55.26a2.244,2.244,0,0,1,2.18-1.634,2.059,2.059,0,0,1,1.8,1.04l31.734,56.289c2.658,4.472,4.578,7.708,11.994,7.708h15.707c8.334,0,13.315-3.8,15.67-11.946l20.445-70.941c.647-2.27.52-4.037-.371-5.241C376.22,175.415,373.949,174.678,370.554,174.678Z" transform="translate(151.252 24.438)" fill="#fff"/>
    <path id="路径_128" data-name="路径 128" d="M219.22,265H207.549a7.341,7.341,0,0,1-7.055-9.363l21.766-75.641a7.335,7.335,0,0,1,7.055-5.315h11.671a7.337,7.337,0,0,1,7.055,9.358l-21.766,75.647A7.346,7.346,0,0,1,219.22,265Z" transform="translate(0 24.438)" fill="#fff"/>
    <path id="路径_129" data-name="路径 129" d="M227.539,199.106H217.37a8.46,8.46,0,0,1-8.132-10.785l4.016-14A7.335,7.335,0,0,1,220.3,169h11.66a7.336,7.336,0,0,1,7.05,9.352L234.589,193.8A7.337,7.337,0,0,1,227.539,199.106Z" transform="translate(37.456 0)" fill="#fff"/>
    <path id="路径_130" data-name="路径 130" d="M329.469,228.332c-7.459,26.015-32.5,39.5-69.753,39.5s-54.565-13.49-47.1-39.5l4.143-14.45c7.421-25.888,33.542-39.5,69.753-39.5s54.528,13.612,47.1,39.5Zm-23.283-13.363c5.077-17.7-3.347-24.933-24.164-24.933s-33.383,7.23-38.46,24.933L240.04,227.25c-5.114,17.824,3.347,24.927,24.163,24.927s33.351-7.1,38.46-24.927Z" transform="translate(46.084 23.164)" fill="#fff"/>
  </g>
</svg>
