<svg xmlns="http://www.w3.org/2000/svg" width="310" height="35" viewBox="0 0 310 35">
  <g id="Logo_-_technology_in_motion" data-name="Logo - technology in motion" transform="translate(-1688.229 -53)">
    <g id="사각형_12242" data-name="사각형 12242" transform="translate(1688.229 53)" fill="#fff" stroke="#707070" stroke-width="1" opacity="0">
      <rect width="310" height="35" stroke="none"/>
      <rect x="0.5" y="0.5" width="309" height="34" fill="none"/>
    </g>
    <g id="그룹_7753" data-name="그룹 7753" transform="translate(1655.688 -334.789)">
      <g id="그룹_7753-2" data-name="그룹 7753" transform="translate(32.541 397.143)">
        <path id="패스_45609" data-name="패스 45609" d="M40.554,405.054H37.7v4.69c0,1.016.214,1.309,1.09,1.309a4.1,4.1,0,0,0,1.77-.351v2.286a6.6,6.6,0,0,1-3.073.644c-2.276,0-3.248-.937-3.248-2.969v-5.608H32.541v-2.423h1.693v-2.247l3.462-.664v2.911h2.859Z" transform="translate(-32.541 -398.313)" fill="#fff"/>
        <path id="패스_45610" data-name="패스 45610" d="M57.958,410.91H51.171v.214c0,1.5.934,1.876,2.7,1.876a10.112,10.112,0,0,0,3.189-.508V414.8a10.283,10.283,0,0,1-3.637.606c-3.734,0-5.6-1.485-5.6-4.924v-1.368c0-3.595,2.315-5,5.076-5,3.015,0,5.057,1.25,5.057,5.275Zm-3.228-2.033v-.41c0-1.192-.525-1.915-1.77-1.915-1.167,0-1.789.7-1.789,1.953v.371Z" transform="translate(-38.684 -400.065)" fill="#fff"/>
        <path id="패스_45611" data-name="패스 45611" d="M75.861,406.982a10.441,10.441,0,0,0-2.7-.352c-1.964,0-2.645.7-2.645,2.481v1.309c0,1.876.7,2.423,2.684,2.423a8.31,8.31,0,0,0,2.859-.469V414.9a10.81,10.81,0,0,1-3.423.527c-3.715,0-5.524-1.426-5.524-4.864v-1.407c0-3.615,1.945-5.041,5.5-5.041a10.174,10.174,0,0,1,3.247.469Z" transform="translate(-46.435 -400.065)" fill="#fff"/>
        <path id="패스_45612" data-name="패스 45612" d="M94.8,412.5H91.341v-6.975c0-.919-.136-1.309-.992-1.309a3.9,3.9,0,0,0-1.925.605V412.5H84.962V397.965l3.462-.586v4.884a6.15,6.15,0,0,1,3.014-.84c2.49,0,3.365,1.426,3.365,3.36Z" transform="translate(-53.611 -397.379)" fill="#fff"/>
        <path id="패스_45613" data-name="패스 45613" d="M114.771,415.188h-3.462v-6.975c0-.919-.155-1.309-.992-1.309a3.529,3.529,0,0,0-1.945.625v7.659H104.93v-10.8H107.5l.233.918a6.517,6.517,0,0,1,3.579-1.191c2.625,0,3.462,1.426,3.462,3.361Z" transform="translate(-61.637 -400.065)" fill="#fff"/>
        <path id="패스_45614" data-name="패스 45614" d="M124.311,410.558v-1.563c0-3.146,1.809-4.885,5.252-4.885s5.251,1.739,5.251,4.885v1.563c0,3.264-1.809,4.885-5.251,4.885s-5.252-1.621-5.252-4.885m3.462-1.426v1.289c0,1.8.622,2.384,1.789,2.384s1.789-.586,1.789-2.384v-1.289c0-1.8-.623-2.385-1.789-2.385s-1.789.586-1.789,2.385" transform="translate(-69.427 -400.065)" fill="#fff"/>
        <path id="패스_45615" data-name="패스 45615" d="M144.929,412.5V397.965l3.462-.586V412.5Z" transform="translate(-77.714 -397.379)" fill="#fff"/>
        <path id="패스_45616" data-name="패스 45616" d="M153.773,410.558v-1.563c0-3.146,1.809-4.885,5.252-4.885s5.251,1.739,5.251,4.885v1.563c0,3.264-1.809,4.885-5.251,4.885s-5.252-1.621-5.252-4.885m3.462-1.426v1.289c0,1.8.623,2.384,1.789,2.384s1.789-.586,1.789-2.384v-1.289c0-1.8-.623-2.385-1.789-2.385s-1.789.586-1.789,2.385" transform="translate(-81.269 -400.065)" fill="#fff"/>
        <path id="패스_45617" data-name="패스 45617" d="M173.773,411.672v-3.2c0-3.126,1.828-4.357,4.318-4.357a5.453,5.453,0,0,1,3.151.88l.234-.606h2.664v10.629c0,2.97-1.166,4.533-5.406,4.533a13.729,13.729,0,0,1-2.956-.332v-2.423a11.068,11.068,0,0,0,2.723.313c1.614,0,2.178-.41,2.178-1.622V414.6a5.543,5.543,0,0,1-2.9.7c-2.9,0-4.007-1.5-4.007-3.634m6.9-4.338a2.731,2.731,0,0,0-1.673-.547c-1.108,0-1.77.43-1.77,1.934v2.247c0,1.133.408,1.642,1.478,1.642a4.349,4.349,0,0,0,1.965-.41Z" transform="translate(-89.308 -400.065)" fill="#fff"/>
        <path id="패스_45618" data-name="패스 45618" d="M204.6,404.565l-5.31,14.968h-3.637l1.459-4.182-3.987-10.786h3.54l1.789,5.686a15.177,15.177,0,0,1,.564,2.364c.234-1.074.37-1.7.565-2.345l1.653-5.705Z" transform="translate(-97.085 -400.247)" fill="#fff"/>
      </g>
      <path id="패스_45619" data-name="패스 45619" d="M222.476,412.667l2.062-10.708h1.4l-2.062,10.708Zm3.968-13.072h-1.478l.291-1.6h1.478Z" transform="translate(-76.343 -0.481)" fill="#fff"/>
      <path id="패스_45620" data-name="패스 45620" d="M236.686,415.121l1.419-7.444c.292-1.544-.019-2.208-1.4-2.208a8,8,0,0,0-3.831,1.231l-1.614,8.422h-1.4l2.062-10.708h1.245l-.058,1.015a8.438,8.438,0,0,1,3.987-1.289c2.2,0,2.82,1.426,2.451,3.439l-1.44,7.543Z" transform="translate(-79.31 -2.934)" fill="#fff"/>
      <path id="패스_45621" data-name="패스 45621" d="M274.6,415.069h-3.443v-6.957c0-.88-.175-1.289-.933-1.289a3.348,3.348,0,0,0-1.77.586v7.66h-3.443v-6.957c0-.918-.136-1.328-.934-1.328a3.312,3.312,0,0,0-1.789.625v7.66h-3.423V404.263h2.567l.233.918a5.711,5.711,0,0,1,3.423-1.172,3.2,3.2,0,0,1,2.762,1.094,6.071,6.071,0,0,1,3.384-1.094c2.567,0,3.365,1.407,3.365,3.341Z" transform="translate(-90.969 -2.882)" fill="#fff"/>
      <path id="패스_45622" data-name="패스 45622" d="M288.1,410.424v-1.563c0-3.146,1.809-4.885,5.251-4.885s5.251,1.739,5.251,4.885v1.563c0,3.263-1.809,4.885-5.251,4.885s-5.251-1.622-5.251-4.885M291.563,409v1.289c0,1.8.623,2.384,1.789,2.384s1.789-.586,1.789-2.384V409c0-1.8-.623-2.384-1.789-2.384s-1.789.586-1.789,2.384" transform="translate(-102.72 -2.869)" fill="#fff"/>
      <path id="패스_45623" data-name="패스 45623" d="M315.235,404.92h-2.859v4.69c0,1.016.213,1.309,1.089,1.309a4.093,4.093,0,0,0,1.77-.351v2.286a6.6,6.6,0,0,1-3.073.644c-2.276,0-3.248-.937-3.248-2.969V404.92h-1.692V402.5h1.692V400.25l3.462-.665V402.5h2.859Z" transform="translate(-110.405 -1.116)" fill="#fff"/>
      <path id="패스_45624" data-name="패스 45624" d="M326.553,399.975h-3.462v-3.186h3.462Zm0,12.212h-3.462V401.381h3.462Z" transform="translate(-116.784)" fill="#fff"/>
      <path id="패스_45625" data-name="패스 45625" d="M331.936,410.424v-1.563c0-3.146,1.809-4.885,5.252-4.885s5.252,1.739,5.252,4.885v1.563c0,3.263-1.809,4.885-5.252,4.885s-5.252-1.622-5.252-4.885M335.4,409v1.289c0,1.8.622,2.384,1.789,2.384s1.789-.586,1.789-2.384V409c0-1.8-.623-2.384-1.789-2.384S335.4,407.2,335.4,409" transform="translate(-120.339 -2.869)" fill="#fff"/>
      <path id="패스_45626" data-name="패스 45626" d="M362.4,415.056h-3.462V408.08c0-.919-.155-1.309-.992-1.309A3.53,3.53,0,0,0,356,407.4v7.66h-3.443V404.25h2.567l.233.918a6.52,6.52,0,0,1,3.579-1.191c2.626,0,3.462,1.426,3.462,3.36Z" transform="translate(-128.627 -2.869)" fill="#fff"/>
      <g id="그룹_7755" data-name="그룹 7755" transform="translate(237.486 401.018)">
        <g id="그룹_7754" data-name="그룹 7754">
          <path id="패스_45627" data-name="패스 45627" d="M375.225,404.526v-.7h4.213v.7h-1.722v4.756h-.767v-4.756Z" transform="translate(-375.225 -403.828)" fill="#fff"/>
          <path id="패스_45628" data-name="패스 45628" d="M388.6,409.282h-.767v-3.723a10.289,10.289,0,0,1,.08-1.076,8.935,8.935,0,0,1-.232,1.1l-1.216,3.7h-.825l-1.252-3.708a6.611,6.611,0,0,1-.224-1.084c.029.357.058.785.058,1.077v3.716h-.739v-5.454H384.5l1.354,3.906a6.793,6.793,0,0,1,.224.836,7.432,7.432,0,0,1,.209-.83l1.267-3.912H388.6Z" transform="translate(-378.543 -403.828)" fill="#fff"/>
        </g>
      </g>
    </g>
  </g>
</svg>
